M48
; DRILL file {KiCad 9.0.7} date 2026-04-22T23:13:49+0200
; FORMAT={-:-/ absolute / metric / decimal}
; #@! TF.CreationDate,2026-04-22T23:13:49+02:00
; #@! TF.GenerationSoftware,Kicad,Pcbnew,9.0.7
; #@! TF.FileFunction,Plated,1,4,PTH
FMAT,2
METRIC
; #@! TA.AperFunction,Plated,PTH,ViaDrill
T1C0.250
; #@! TA.AperFunction,Plated,PTH,ComponentDrill
T2C0.900
%
G90
G05
T1
X31.0Y-49.8
X31.0Y-53.5
X31.0Y-55.9
X32.5Y-34.7
X32.9Y-50.7
X33.5Y-29.5
X34.5Y-54.1
X34.5Y-56.0
X34.5Y-62.0
X36.9Y-38.1
X37.0Y-44.5
X37.4Y-36.5
X37.5Y-46.7
X37.5Y-48.5
X37.5Y-50.7
X38.0Y-39.5
X38.0Y-53.9
X38.8Y-35.1
X39.4Y-42.9
X39.8Y-38.0
X40.2Y-40.0
X40.2Y-44.1
X49.0Y-29.0
X49.0Y-30.9
X49.5Y-42.9
X49.5Y-64.0
X50.0Y-57.4
X50.5Y-31.5
X50.9Y-42.9
X50.9Y-59.7
X50.9Y-62.0
X51.9Y-63.3
X52.6Y-34.5
X52.6Y-43.5
X53.5Y-50.7
X53.7Y-56.7
X53.7Y-58.6
X54.0Y-36.5
X54.0Y-42.1
X54.0Y-45.3
X54.0Y-52.5
X54.1Y-60.0
X54.1Y-63.3
X54.4Y-30.1
X54.6Y-59.4
X54.8Y-44.1
X54.8Y-47.7
X54.8Y-49.5
X55.5Y-29.0
X55.5Y-29.6
X55.5Y-31.0
X55.8Y-36.5
X55.8Y-38.0
X55.8Y-39.5
X55.8Y-41.0
X56.4Y-27.0
X56.9Y-35.5
X63.5Y-33.0
X63.5Y-34.5
X63.5Y-42.2
X63.5Y-43.5
X64.1Y-54.0
X64.1Y-58.0
X64.7Y-59.3
X66.2Y-59.3
X67.1Y-65.5
X67.6Y-59.2
X67.6Y-60.3
X68.1Y-54.0
X68.1Y-57.0
X68.2Y-63.0
X68.5Y-29.5
X68.7Y-58.4
X69.0Y-64.0
X69.5Y-24.5
X70.0Y-51.5
X70.0Y-53.0
X70.0Y-56.0
X70.0Y-59.0
X70.0Y-60.5
X71.3Y-56.0
X78.5Y-36.0
X78.5Y-37.5
X78.5Y-39.0
X78.5Y-40.5
X79.0Y-67.4
X81.5Y-66.0
X82.5Y-26.5
X82.5Y-28.5
X84.92Y-54.4
X87.4Y-62.0
X87.4Y-63.5
X87.6Y-57.5
X89.18Y-52.4
X89.25Y-56.0
T2
X22.0Y-53.0
X22.0Y-63.0
X24.0Y-63.0
X25.0Y-38.0
X26.0Y-53.0
X26.0Y-63.0
X27.0Y-22.0
X27.0Y-38.0
X28.0Y-53.0
X28.0Y-63.0
X29.0Y-22.0
X29.0Y-38.0
X31.0Y-22.0
X31.0Y-38.0
M30
