%TF.GenerationSoftware,KiCad,Pcbnew,9.0.7*%
%TF.CreationDate,2026-04-22T23:13:49+02:00*%
%TF.ProjectId,esp32_eth_dect_nrf9151_gateway_min,65737033-325f-4657-9468-5f646563745f,A0*%
%TF.SameCoordinates,Original*%
%TF.FileFunction,Copper,L4,Bot*%
%TF.FilePolarity,Positive*%
%FSLAX46Y46*%
G04 Gerber Fmt 4.6, Leading zero omitted, Abs format (unit mm)*
G04 Created by KiCad (PCBNEW 9.0.7) date 2026-04-22 23:13:49*
%MOMM*%
%LPD*%
G01*
G04 APERTURE LIST*
%TA.AperFunction,ComponentPad*%
%ADD10C,1.800000*%
%TD*%
%TA.AperFunction,ViaPad*%
%ADD11C,0.500000*%
%TD*%
%TA.AperFunction,Conductor*%
%ADD12C,0.200000*%
%TD*%
%TA.AperFunction,Conductor*%
%ADD13C,0.150000*%
%TD*%
%ADD14C,0.250000*%
%ADD15C,0.350000*%
G04 APERTURE END LIST*
D10*
%TO.P,J2,1*%
%TO.N,+5V_USB_RAW*%
X28000000Y-63000000D03*
%TO.P,J2,2*%
%TO.N,USB_DP*%
X26000000Y-63000000D03*
%TO.P,J2,3*%
%TO.N,USB_DM*%
X24000000Y-63000000D03*
%TO.P,J2,4*%
%TO.N,USB_CC1*%
X22000000Y-63000000D03*
%TO.P,J2,5*%
%TO.N,USB_CC2*%
X22000000Y-53000000D03*
%TO.P,J2,6*%
%TO.N,GND*%
X26000000Y-53000000D03*
%TO.P,J2,7*%
%TO.N,CHASSIS_GND*%
X28000000Y-53000000D03*
%TD*%
%TO.P,J1,1*%
%TO.N,ETH_TXP*%
X31000000Y-38000000D03*
%TO.P,J1,2*%
%TO.N,ETH_TXN*%
X29000000Y-38000000D03*
%TO.P,J1,3*%
%TO.N,ETH_RXP*%
X27000000Y-38000000D03*
%TO.P,J1,4*%
%TO.N,ETH_RXN*%
X25000000Y-38000000D03*
%TO.P,J1,5*%
%TO.N,POE_VP*%
X31000000Y-22000000D03*
%TO.P,J1,6*%
%TO.N,POE_VN*%
X29000000Y-22000000D03*
%TO.P,J1,7*%
%TO.N,CHASSIS_GND*%
X27000000Y-22000000D03*
%TD*%
D11*
%TO.N,+3V3_SYS*%
X71300000Y-56000000D03*
X89250000Y-56000000D03*
X34500000Y-54100000D03*
X68500000Y-29500000D03*
X63500000Y-43500000D03*
X52600000Y-43500000D03*
X34500000Y-56000000D03*
X69500000Y-24500000D03*
%TO.N,+5V_POE*%
X55500000Y-31000000D03*
X49000000Y-30900000D03*
%TO.N,GND*%
X84920000Y-54400000D03*
X89180000Y-52400000D03*
%TO.N,ESP_BOOT0*%
X54400000Y-30100000D03*
X82500000Y-28500000D03*
%TO.N,ESP_CTS_NRF_RTS*%
X54000000Y-52500000D03*
X51900000Y-63300000D03*
%TO.N,ESP_EN*%
X82500000Y-26500000D03*
X54000000Y-36500000D03*
%TO.N,ESP_RTS_NRF_CTS*%
X38800000Y-35100000D03*
X50900000Y-62000000D03*
%TO.N,ESP_RX_NRF_TX*%
X38000000Y-53900000D03*
X37400000Y-36500000D03*
%TO.N,ESP_SPI1_CS_N*%
X55800000Y-36500000D03*
X39800000Y-38000000D03*
%TO.N,ESP_SPI1_MISO*%
X37500000Y-46700000D03*
X55800000Y-39500000D03*
%TO.N,ESP_SPI1_MOSI*%
X55800000Y-38000000D03*
X37000000Y-44500000D03*
X39400000Y-42900000D03*
%TO.N,ESP_SPI1_SCLK*%
X55800000Y-41000000D03*
X37500000Y-48500000D03*
%TO.N,ESP_SPI2_CS_N*%
X54000000Y-45300000D03*
X54600000Y-59400000D03*
%TO.N,ESP_SPI2_MISO*%
X64100000Y-58000000D03*
X54800000Y-49500000D03*
%TO.N,ESP_SPI2_MOSI*%
X54800000Y-47700000D03*
X64700000Y-59300000D03*
%TO.N,ESP_SPI2_SCLK*%
X64100000Y-54000000D03*
X53500000Y-50700000D03*
%TO.N,ESP_TX_NRF_RX*%
X36900000Y-38100000D03*
X40200000Y-40000000D03*
X40200000Y-44100000D03*
%TO.N,ESP_U0RXD*%
X49500000Y-64000000D03*
X49500000Y-42900000D03*
%TO.N,ESP_U0TXD*%
X50900000Y-59700000D03*
X50900000Y-42900000D03*
%TO.N,ETH_INT_N*%
X52600000Y-34500000D03*
X63500000Y-34500000D03*
%TO.N,ETH_RST_N*%
X38000000Y-39500000D03*
X63500000Y-33000000D03*
%TO.N,ETH_RXN*%
X78500000Y-36000000D03*
%TO.N,ETH_RXP*%
X78500000Y-37500000D03*
%TO.N,ETH_TXN*%
X78500000Y-39000000D03*
%TO.N,ETH_TXP*%
X78500000Y-40500000D03*
%TO.N,GND*%
X68200000Y-63000000D03*
X37500000Y-50700000D03*
X31000000Y-55900000D03*
X56900000Y-35500000D03*
X31000000Y-49800000D03*
X63500000Y-42200000D03*
X49000000Y-29000000D03*
X55500000Y-29600000D03*
X55500000Y-29000000D03*
X69000000Y-64000000D03*
X68100000Y-57000000D03*
X31000000Y-53500000D03*
X34500000Y-62000000D03*
X32900000Y-50700000D03*
X81500000Y-66000000D03*
X33500000Y-29500000D03*
X32500000Y-34700000D03*
%TO.N,NRF_IRQ*%
X87400000Y-63500000D03*
X54800000Y-44100000D03*
%TO.N,NRF_RST_N*%
X87400000Y-62000000D03*
X54000000Y-42100000D03*
%TO.N,NRF_SPI_CSN*%
X67100000Y-65500000D03*
X70000000Y-51500000D03*
%TO.N,NRF_SPI_MOSI*%
X67600000Y-59200000D03*
X70000000Y-53000000D03*
%TO.N,NRF_SPI_SCLK*%
X70000000Y-56000000D03*
X68100000Y-54000000D03*
%TO.N,NRF_UART_CTS*%
X70000000Y-59000000D03*
X54100000Y-60000000D03*
%TO.N,NRF_UART_RTS*%
X54100000Y-63300000D03*
X67600000Y-60300000D03*
%TO.N,NRF_UART_RX*%
X53700000Y-56700000D03*
X68700000Y-58400000D03*
%TO.N,NRF_UART_TX*%
X70000000Y-60500000D03*
X66200000Y-59300000D03*
X53700000Y-58600000D03*
%TO.N,POE_VP*%
X50500000Y-31500000D03*
%TO.N,USB_RTS*%
X50000000Y-57400000D03*
X56400000Y-27000000D03*
%TO.N,SWDCLK*%
X87600000Y-57500000D03*
X79000000Y-67400000D03*
%TD*%
D12*
%TO.N,+3V3_SYS*%
X71300000Y-56000000D02*
X71300000Y-68000000D01*
X71300000Y-68000000D02*
X89250000Y-68000000D01*
X89250000Y-68000000D02*
X89250000Y-56000000D01*
%TO.N,GND*%
X84920000Y-54400000D02*
X89180000Y-52400000D01*
X84920000Y-54400000D02*
X84920000Y-66000000D01*
X84920000Y-66000000D02*
X81500000Y-66000000D01*
D13*
%TO.N,ESP_EN*%
X54900000Y-30300000D02*
X55000000Y-30300000D01*
X54000000Y-36500000D02*
X54000000Y-30700000D01*
X55000000Y-30300000D02*
X55000000Y-26500000D01*
X54600000Y-30600000D02*
X54800000Y-30600000D01*
X55000000Y-26500000D02*
X82500000Y-26500000D01*
X54800000Y-30600000D02*
X54800000Y-30500000D01*
X54000000Y-30700000D02*
X54600000Y-30700000D01*
X54800000Y-30500000D02*
X54900000Y-30500000D01*
X54900000Y-30500000D02*
X54900000Y-30300000D01*
X54600000Y-30700000D02*
X54600000Y-30600000D01*
%TO.N,ESP_RTS_NRF_CTS*%
X50900000Y-62000000D02*
X38800000Y-62000000D01*
X38800000Y-62000000D02*
X38800000Y-35100000D01*
%TO.N,ESP_RX_NRF_TX*%
X37500000Y-39700000D02*
X37400000Y-39700000D01*
X38000000Y-40100000D02*
X37800000Y-40100000D01*
X37800000Y-40100000D02*
X37800000Y-40000000D01*
X38000000Y-53900000D02*
X38000000Y-40100000D01*
X37800000Y-40000000D02*
X37600000Y-40000000D01*
X37600000Y-40000000D02*
X37600000Y-39900000D01*
X37500000Y-39900000D02*
X37500000Y-39700000D01*
X37400000Y-39700000D02*
X37400000Y-36500000D01*
X37600000Y-39900000D02*
X37500000Y-39900000D01*
%TO.N,ESP_SPI1_MOSI*%
X40200000Y-38500000D02*
X40200000Y-38400000D01*
X40000000Y-38500000D02*
X40200000Y-38500000D01*
X40200000Y-38400000D02*
X40300000Y-38400000D01*
X40300000Y-38200000D02*
X40400000Y-38200000D01*
X39400000Y-42900000D02*
X39400000Y-38600000D01*
X39400000Y-38600000D02*
X40000000Y-38600000D01*
X40400000Y-38000000D02*
X55800000Y-38000000D01*
X40300000Y-38400000D02*
X40300000Y-38200000D01*
X40000000Y-38600000D02*
X40000000Y-38500000D01*
X40400000Y-38200000D02*
X40400000Y-38000000D01*
D12*
%TO.N,GND*%
X64400000Y-53500000D02*
X64500000Y-53500000D01*
X63500000Y-42200000D02*
X63500000Y-42900000D01*
X64600000Y-53700000D02*
X64700000Y-53700000D01*
X63500000Y-42900000D02*
X63800000Y-42900000D01*
X63800000Y-42900000D02*
X63800000Y-43000000D01*
X64700000Y-53700000D02*
X64700000Y-57000000D01*
X64600000Y-53600000D02*
X64600000Y-53700000D01*
X64100000Y-53400000D02*
X64400000Y-53400000D01*
X64000000Y-43100000D02*
X64000000Y-43200000D01*
X64500000Y-53500000D02*
X64500000Y-53600000D01*
X64100000Y-43200000D02*
X64100000Y-53400000D01*
X63900000Y-43000000D02*
X63900000Y-43100000D01*
X63900000Y-43100000D02*
X64000000Y-43100000D01*
X56900000Y-42000000D02*
X63500000Y-42200000D01*
X64500000Y-53600000D02*
X64600000Y-53600000D01*
X56900000Y-35500000D02*
X56900000Y-42000000D01*
X64700000Y-57000000D02*
X68100000Y-57000000D01*
X63800000Y-43000000D02*
X63900000Y-43000000D01*
X64000000Y-43200000D02*
X64100000Y-43200000D01*
X64400000Y-53400000D02*
X64400000Y-53500000D01*
D13*
%TO.N,NRF_UART_CTS*%
X54800000Y-59900000D02*
X64900000Y-59900000D01*
X68100000Y-59600000D02*
X68100000Y-59400000D01*
X64900000Y-59800000D02*
X67800000Y-59800000D01*
X64900000Y-59900000D02*
X64900000Y-59800000D01*
X68200000Y-59400000D02*
X68200000Y-59000000D01*
X68000000Y-59700000D02*
X68000000Y-59600000D01*
X68000000Y-59600000D02*
X68100000Y-59600000D01*
X67800000Y-59800000D02*
X67800000Y-59700000D01*
X54800000Y-60000000D02*
X54800000Y-59900000D01*
X67800000Y-59700000D02*
X68000000Y-59700000D01*
X68100000Y-59400000D02*
X68200000Y-59400000D01*
X68200000Y-59000000D02*
X70000000Y-59000000D01*
X54100000Y-60000000D02*
X54800000Y-60000000D01*
%TO.N,NRF_UART_RTS*%
X54100000Y-60600000D02*
X54300000Y-60600000D01*
X54900000Y-60300000D02*
X67600000Y-60300000D01*
X54500000Y-60400000D02*
X54900000Y-60400000D01*
X54900000Y-60400000D02*
X54900000Y-60300000D01*
X54300000Y-60600000D02*
X54300000Y-60500000D01*
X54100000Y-63300000D02*
X54100000Y-60600000D01*
X54500000Y-60500000D02*
X54500000Y-60400000D01*
X54300000Y-60500000D02*
X54500000Y-60500000D01*
%TO.N,NRF_UART_RX*%
X64600000Y-57800000D02*
X64700000Y-57800000D01*
X64700000Y-58400000D02*
X68700000Y-58400000D01*
X64700000Y-57800000D02*
X64700000Y-58400000D01*
X64500000Y-57600000D02*
X64600000Y-57600000D01*
X53700000Y-56700000D02*
X53700000Y-57400000D01*
X64600000Y-57600000D02*
X64600000Y-57800000D01*
X64500000Y-57500000D02*
X64500000Y-57600000D01*
X64300000Y-57400000D02*
X64300000Y-57500000D01*
X53700000Y-57400000D02*
X64300000Y-57400000D01*
X64300000Y-57500000D02*
X64500000Y-57500000D01*
%TO.N,USB_RTS*%
X56300000Y-38200000D02*
X56400000Y-38200000D01*
X50100000Y-43100000D02*
X50100000Y-38600000D01*
X50000000Y-43100000D02*
X50100000Y-43100000D01*
X56000000Y-38500000D02*
X56200000Y-38500000D01*
X50000000Y-57400000D02*
X50000000Y-43100000D01*
X56400000Y-38200000D02*
X56400000Y-27000000D01*
X56200000Y-38400000D02*
X56300000Y-38400000D01*
X56300000Y-38400000D02*
X56300000Y-38200000D01*
X56200000Y-38500000D02*
X56200000Y-38400000D01*
X56000000Y-38600000D02*
X56000000Y-38500000D01*
X50100000Y-38600000D02*
X56000000Y-38600000D01*
%TD*%
D14*
X71300000Y-56000000D03*
X89250000Y-56000000D03*
X34500000Y-54100000D03*
X68500000Y-29500000D03*
X63500000Y-43500000D03*
X52600000Y-43500000D03*
X34500000Y-56000000D03*
X69500000Y-24500000D03*
X55500000Y-31000000D03*
X49000000Y-30900000D03*
X84920000Y-54400000D03*
X89180000Y-52400000D03*
X54400000Y-30100000D03*
X82500000Y-28500000D03*
X54000000Y-52500000D03*
X51900000Y-63300000D03*
X82500000Y-26500000D03*
X54000000Y-36500000D03*
X38800000Y-35100000D03*
X50900000Y-62000000D03*
X38000000Y-53900000D03*
X37400000Y-36500000D03*
X55800000Y-36500000D03*
X39800000Y-38000000D03*
X37500000Y-46700000D03*
X55800000Y-39500000D03*
X55800000Y-38000000D03*
X37000000Y-44500000D03*
X39400000Y-42900000D03*
X55800000Y-41000000D03*
X37500000Y-48500000D03*
X54000000Y-45300000D03*
X54600000Y-59400000D03*
X64100000Y-58000000D03*
X54800000Y-49500000D03*
X54800000Y-47700000D03*
X64700000Y-59300000D03*
X64100000Y-54000000D03*
X53500000Y-50700000D03*
X36900000Y-38100000D03*
X40200000Y-40000000D03*
X40200000Y-44100000D03*
X49500000Y-64000000D03*
X49500000Y-42900000D03*
X50900000Y-59700000D03*
X50900000Y-42900000D03*
X52600000Y-34500000D03*
X63500000Y-34500000D03*
X38000000Y-39500000D03*
X63500000Y-33000000D03*
X78500000Y-36000000D03*
X78500000Y-37500000D03*
X78500000Y-39000000D03*
X78500000Y-40500000D03*
X68200000Y-63000000D03*
X37500000Y-50700000D03*
X31000000Y-55900000D03*
X56900000Y-35500000D03*
X31000000Y-49800000D03*
X63500000Y-42200000D03*
X49000000Y-29000000D03*
X55500000Y-29600000D03*
X55500000Y-29000000D03*
X69000000Y-64000000D03*
X68100000Y-57000000D03*
X31000000Y-53500000D03*
X34500000Y-62000000D03*
X32900000Y-50700000D03*
X81500000Y-66000000D03*
X33500000Y-29500000D03*
X32500000Y-34700000D03*
X87400000Y-63500000D03*
X54800000Y-44100000D03*
X87400000Y-62000000D03*
X54000000Y-42100000D03*
X67100000Y-65500000D03*
X70000000Y-51500000D03*
X67600000Y-59200000D03*
X70000000Y-53000000D03*
X70000000Y-56000000D03*
X68100000Y-54000000D03*
X70000000Y-59000000D03*
X54100000Y-60000000D03*
X54100000Y-63300000D03*
X67600000Y-60300000D03*
X53700000Y-56700000D03*
X68700000Y-58400000D03*
X70000000Y-60500000D03*
X66200000Y-59300000D03*
X53700000Y-58600000D03*
X50500000Y-31500000D03*
X50000000Y-57400000D03*
X56400000Y-27000000D03*
X87600000Y-57500000D03*
X79000000Y-67400000D03*
D15*
X28000000Y-63000000D03*
X26000000Y-63000000D03*
X24000000Y-63000000D03*
X22000000Y-63000000D03*
X22000000Y-53000000D03*
X26000000Y-53000000D03*
X28000000Y-53000000D03*
X31000000Y-38000000D03*
X29000000Y-38000000D03*
X27000000Y-38000000D03*
X25000000Y-38000000D03*
X31000000Y-22000000D03*
X29000000Y-22000000D03*
X27000000Y-22000000D03*
M02*
