%TF.GenerationSoftware,KiCad,Pcbnew,9.0.7*%
%TF.CreationDate,2026-04-22T23:13:49+02:00*%
%TF.ProjectId,esp32_eth_dect_nrf9151_gateway_min,65737033-325f-4657-9468-5f646563745f,A0*%
%TF.SameCoordinates,Original*%
%TF.FileFunction,Copper,L1,Top*%
%TF.FilePolarity,Positive*%
%FSLAX46Y46*%
G04 Gerber Fmt 4.6, Leading zero omitted, Abs format (unit mm)*
G04 Created by KiCad (PCBNEW 9.0.7) date 2026-04-22 23:13:49*
%MOMM*%
%LPD*%
G01*
G04 APERTURE LIST*
G04 Aperture macros list*
%AMRoundRect*
0 Rectangle with rounded corners*
0 $1 Rounding radius*
0 $2 $3 $4 $5 $6 $7 $8 $9 X,Y pos of 4 corners*
0 Add a 4 corners polygon primitive as box body*
4,1,4,$2,$3,$4,$5,$6,$7,$8,$9,$2,$3,0*
0 Add four circle primitives for the rounded corners*
1,1,$1+$1,$2,$3*
1,1,$1+$1,$4,$5*
1,1,$1+$1,$6,$7*
1,1,$1+$1,$8,$9*
0 Add four rect primitives between the rounded corners*
20,1,$1+$1,$2,$3,$4,$5,0*
20,1,$1+$1,$4,$5,$6,$7,0*
20,1,$1+$1,$6,$7,$8,$9,0*
20,1,$1+$1,$8,$9,$2,$3,0*%
G04 Aperture macros list end*
%TA.AperFunction,SMDPad,CuDef*%
%ADD10R,1.200000X1.200000*%
%TD*%
%TA.AperFunction,SMDPad,CuDef*%
%ADD11R,1.500000X0.800000*%
%TD*%
%TA.AperFunction,ComponentPad*%
%ADD12C,1.800000*%
%TD*%
%TA.AperFunction,SMDPad,CuDef*%
%ADD13R,1.800000X0.800000*%
%TD*%
%TA.AperFunction,SMDPad,CuDef*%
%ADD14R,1.500000X1.200000*%
%TD*%
%TA.AperFunction,SMDPad,CuDef*%
%ADD15RoundRect,0.140000X-0.140000X-0.170000X0.140000X-0.170000X0.140000X0.170000X-0.140000X0.170000X0*%
%TD*%
%TA.AperFunction,SMDPad,CuDef*%
%ADD16RoundRect,0.147500X-0.147500X-0.172500X0.147500X-0.172500X0.147500X0.172500X-0.147500X0.172500X0*%
%TD*%
%TA.AperFunction,SMDPad,CuDef*%
%ADD17R,1.500000X0.700000*%
%TD*%
%TA.AperFunction,SMDPad,CuDef*%
%ADD18R,1.200000X0.700000*%
%TD*%
%TA.AperFunction,SMDPad,CuDef*%
%ADD19R,1.500000X0.900000*%
%TD*%
%TA.AperFunction,ViaPad*%
%ADD20C,0.500000*%
%TD*%
%TA.AperFunction,Conductor*%
%ADD21C,0.200000*%
%TD*%
%TA.AperFunction,Conductor*%
%ADD22C,0.250000*%
%TD*%
%TA.AperFunction,Conductor*%
%ADD23C,0.450000*%
%TD*%
%TA.AperFunction,Conductor*%
%ADD24C,0.150000*%
%TD*%
%TA.AperFunction,Conductor*%
%ADD25C,0.300000*%
%TD*%
%ADD26C,0.250000*%
%ADD27C,0.350000*%
G04 APERTURE END LIST*
D10*
%TO.P,R202,1*%
%TO.N,USB_CC2*%
X31000000Y-52200000D03*
%TO.P,R202,2*%
%TO.N,GND*%
X31000000Y-49800000D03*
%TD*%
D11*
%TO.P,U6,1*%
%TO.N,+5V_USB*%
X34500000Y-64000000D03*
%TO.P,U6,2*%
%TO.N,GND*%
X34500000Y-62000000D03*
%TO.P,U6,3*%
%TO.N,USB_DP*%
X34500000Y-60000000D03*
%TO.P,U6,4*%
%TO.N,USB_DM*%
X34500000Y-58000000D03*
%TO.P,U6,5*%
%TO.N,+3V3_SYS*%
X34500000Y-56000000D03*
%TO.P,U6,6*%
%TO.N,ESP_U0RXD*%
X49500000Y-64000000D03*
%TO.P,U6,7*%
%TO.N,ESP_U0TXD*%
X49500000Y-62000000D03*
%TO.P,U6,8*%
%TO.N,USB_DTR*%
X49500000Y-60000000D03*
%TO.P,U6,9*%
%TO.N,USB_RTS*%
X49500000Y-58000000D03*
%TD*%
D12*
%TO.P,J2,1*%
%TO.N,+5V_USB_RAW*%
X28000000Y-63000000D03*
%TO.P,J2,2*%
%TO.N,USB_DP*%
X26000000Y-63000000D03*
%TO.P,J2,3*%
%TO.N,USB_DM*%
X24000000Y-63000000D03*
%TO.P,J2,4*%
%TO.N,USB_CC1*%
X22000000Y-63000000D03*
%TO.P,J2,5*%
%TO.N,USB_CC2*%
X22000000Y-53000000D03*
%TO.P,J2,6*%
%TO.N,GND*%
X26000000Y-53000000D03*
%TO.P,J2,7*%
%TO.N,CHASSIS_GND*%
X28000000Y-53000000D03*
%TD*%
D13*
%TO.P,U4,1*%
%TO.N,+5V_POE*%
X33500000Y-33500000D03*
%TO.P,U4,2*%
X33500000Y-31500000D03*
%TO.P,U4,3*%
%TO.N,GND*%
X33500000Y-29500000D03*
%TO.P,U4,5*%
%TO.N,POE_VP*%
X50500000Y-33500000D03*
%TO.P,U4,6*%
X50500000Y-31500000D03*
%TO.P,U4,7*%
%TO.N,POE_VN*%
X50500000Y-29500000D03*
%TO.P,U4,8*%
X50500000Y-27500000D03*
%TD*%
D14*
%TO.P,J3,1*%
%TO.N,DECT_RF_ANT*%
X87000000Y-49500000D03*
%TO.P,J3,2*%
%TO.N,GND*%
X87000000Y-40500000D03*
%TD*%
D15*
%TO.P,C301,1*%
%TO.N,DECT_RF*%
X85880000Y-55000000D03*
%TO.P,C301,2*%
%TO.N,GND*%
X84920000Y-55000000D03*
%TD*%
D16*
%TO.P,L301,1*%
%TO.N,DECT_RF*%
X87015000Y-55000000D03*
%TO.P,L301,2*%
%TO.N,DECT_RF_ANT*%
X87985000Y-55000000D03*
%TD*%
D15*
%TO.P,C302,1*%
%TO.N,DECT_RF_ANT*%
X88220000Y-53000000D03*
%TO.P,C302,2*%
%TO.N,GND*%
X89180000Y-53000000D03*
%TD*%
D17*
%TO.P,U3,1*%
%TO.N,+3V3_SYS*%
X70000000Y-65000000D03*
%TO.P,U3,2*%
%TO.N,GND*%
X70000000Y-63500000D03*
%TO.P,U3,3*%
%TO.N,NRF_UART_RX*%
X70000000Y-62000000D03*
%TO.P,U3,4*%
%TO.N,NRF_UART_TX*%
X70000000Y-60500000D03*
%TO.P,U3,5*%
%TO.N,NRF_UART_CTS*%
X70000000Y-59000000D03*
%TO.P,U3,6*%
%TO.N,NRF_UART_RTS*%
X70000000Y-57500000D03*
%TO.P,U3,7*%
%TO.N,NRF_SPI_SCLK*%
X70000000Y-56000000D03*
%TO.P,U3,8*%
%TO.N,NRF_SPI_MISO*%
X70000000Y-54500000D03*
%TO.P,U3,9*%
%TO.N,NRF_SPI_MOSI*%
X70000000Y-53000000D03*
%TO.P,U3,10*%
%TO.N,NRF_SPI_CSN*%
X70000000Y-51500000D03*
%TO.P,U3,11*%
%TO.N,NRF_IRQ*%
X88000000Y-63500000D03*
%TO.P,U3,12*%
%TO.N,NRF_RST_N*%
X88000000Y-62000000D03*
%TO.P,U3,13*%
%TO.N,DECT_RF*%
X88000000Y-60500000D03*
%TO.P,U3,14*%
%TO.N,SWDIO*%
X88000000Y-59000000D03*
%TO.P,U3,15*%
%TO.N,SWDCLK*%
X88000000Y-57500000D03*
%TO.P,U3,16*%
%TO.N,+3V3_SYS*%
X88000000Y-56000000D03*
%TD*%
D10*
%TO.P,SJ201,1*%
%TO.N,ESP_SPI2_SCLK*%
X64400000Y-54000000D03*
%TO.P,SJ201,2*%
%TO.N,NRF_SPI_SCLK*%
X66600000Y-54000000D03*
%TD*%
%TO.P,SJ203,1*%
%TO.N,ESP_SPI2_MOSI*%
X64400000Y-62000000D03*
%TO.P,SJ203,2*%
%TO.N,NRF_SPI_MOSI*%
X66600000Y-62000000D03*
%TD*%
%TO.P,R201,1*%
%TO.N,USB_CC1*%
X31000000Y-57200000D03*
%TO.P,R201,2*%
%TO.N,GND*%
X31000000Y-54800000D03*
%TD*%
D18*
%TO.P,U2,1*%
%TO.N,+3V3_SYS*%
X63500000Y-43500000D03*
%TO.P,U2,2*%
%TO.N,GND*%
X63500000Y-42000000D03*
%TO.P,U2,3*%
%TO.N,ESP_SPI1_SCLK*%
X63500000Y-40500000D03*
%TO.P,U2,4*%
%TO.N,ESP_SPI1_MISO*%
X63500000Y-39000000D03*
%TO.P,U2,5*%
%TO.N,ESP_SPI1_MOSI*%
X63500000Y-37500000D03*
%TO.P,U2,6*%
%TO.N,ESP_SPI1_CS_N*%
X63500000Y-36000000D03*
%TO.P,U2,7*%
%TO.N,ETH_INT_N*%
X63500000Y-34500000D03*
%TO.P,U2,8*%
%TO.N,ETH_RST_N*%
X63500000Y-33000000D03*
%TO.P,U2,9*%
%TO.N,ETH_TXP*%
X78500000Y-40500000D03*
%TO.P,U2,10*%
%TO.N,ETH_TXN*%
X78500000Y-39000000D03*
%TO.P,U2,11*%
%TO.N,ETH_RXP*%
X78500000Y-37500000D03*
%TO.P,U2,12*%
%TO.N,ETH_RXN*%
X78500000Y-36000000D03*
%TD*%
D11*
%TO.P,U1,1*%
%TO.N,+3V3_SYS*%
X38000000Y-52500000D03*
%TO.P,U1,2*%
%TO.N,GND*%
X38000000Y-50700000D03*
%TO.P,U1,3*%
%TO.N,ESP_SPI1_SCLK*%
X38000000Y-48900000D03*
%TO.P,U1,4*%
%TO.N,ESP_SPI1_MISO*%
X38000000Y-47100000D03*
%TO.P,U1,5*%
%TO.N,ESP_SPI1_MOSI*%
X38000000Y-45300000D03*
%TO.P,U1,6*%
%TO.N,ESP_SPI1_CS_N*%
X38000000Y-43500000D03*
%TO.P,U1,7*%
%TO.N,ETH_INT_N*%
X38000000Y-41700000D03*
%TO.P,U1,8*%
%TO.N,ETH_RST_N*%
X38000000Y-39900000D03*
%TO.P,U1,9*%
%TO.N,ESP_TX_NRF_RX*%
X38000000Y-38100000D03*
%TO.P,U1,10*%
%TO.N,ESP_RX_NRF_TX*%
X38000000Y-36300000D03*
%TO.P,U1,11*%
%TO.N,ESP_RTS_NRF_CTS*%
X38000000Y-34500000D03*
%TO.P,U1,12*%
%TO.N,ESP_CTS_NRF_RTS*%
X54000000Y-52500000D03*
%TO.P,U1,13*%
%TO.N,ESP_SPI2_SCLK*%
X54000000Y-50700000D03*
%TO.P,U1,14*%
%TO.N,ESP_SPI2_MISO*%
X54000000Y-48900000D03*
%TO.P,U1,15*%
%TO.N,ESP_SPI2_MOSI*%
X54000000Y-47100000D03*
%TO.P,U1,16*%
%TO.N,ESP_SPI2_CS_N*%
X54000000Y-45300000D03*
%TO.P,U1,17*%
%TO.N,NRF_IRQ*%
X54000000Y-43500000D03*
%TO.P,U1,18*%
%TO.N,NRF_RST_N*%
X54000000Y-41700000D03*
%TO.P,U1,19*%
%TO.N,ESP_U0TXD*%
X54000000Y-39900000D03*
%TO.P,U1,20*%
%TO.N,ESP_U0RXD*%
X54000000Y-38100000D03*
%TO.P,U1,21*%
%TO.N,ESP_EN*%
X54000000Y-36300000D03*
%TO.P,U1,22*%
%TO.N,ESP_BOOT0*%
X54000000Y-34500000D03*
%TD*%
D10*
%TO.P,D7,1*%
%TO.N,+5V_USB*%
X36800000Y-63000000D03*
%TO.P,D7,2*%
%TO.N,+5V_POE*%
X39200000Y-63000000D03*
%TD*%
%TO.P,SJ102,1*%
%TO.N,ESP_RX_NRF_TX*%
X51500000Y-58000000D03*
%TO.P,SJ102,2*%
%TO.N,NRF_UART_TX*%
X53700000Y-58000000D03*
%TD*%
D11*
%TO.P,U7,1*%
%TO.N,USB_DTR*%
X69500000Y-28500000D03*
%TO.P,U7,2*%
%TO.N,USB_RTS*%
X69500000Y-26500000D03*
%TO.P,U7,3*%
%TO.N,+3V3_SYS*%
X69500000Y-24500000D03*
%TO.P,U7,4*%
%TO.N,GND*%
X69500000Y-22500000D03*
%TO.P,U7,5*%
%TO.N,ESP_BOOT0*%
X82500000Y-28500000D03*
%TO.P,U7,6*%
%TO.N,ESP_EN*%
X82500000Y-26500000D03*
%TD*%
D12*
%TO.P,J1,1*%
%TO.N,ETH_TXP*%
X31000000Y-38000000D03*
%TO.P,J1,2*%
%TO.N,ETH_TXN*%
X29000000Y-38000000D03*
%TO.P,J1,3*%
%TO.N,ETH_RXP*%
X27000000Y-38000000D03*
%TO.P,J1,4*%
%TO.N,ETH_RXN*%
X25000000Y-38000000D03*
%TO.P,J1,5*%
%TO.N,POE_VP*%
X31000000Y-22000000D03*
%TO.P,J1,6*%
%TO.N,POE_VN*%
X29000000Y-22000000D03*
%TO.P,J1,7*%
%TO.N,CHASSIS_GND*%
X27000000Y-22000000D03*
%TD*%
D10*
%TO.P,SJ103,1*%
%TO.N,ESP_RTS_NRF_CTS*%
X51900000Y-62000000D03*
%TO.P,SJ103,2*%
%TO.N,NRF_UART_CTS*%
X54100000Y-62000000D03*
%TD*%
%TO.P,SJ101,1*%
%TO.N,ESP_TX_NRF_RX*%
X51500000Y-54000000D03*
%TO.P,SJ101,2*%
%TO.N,NRF_UART_RX*%
X53700000Y-54000000D03*
%TD*%
%TO.P,SJ202,1*%
%TO.N,ESP_SPI2_MISO*%
X64400000Y-58000000D03*
%TO.P,SJ202,2*%
%TO.N,NRF_SPI_MISO*%
X66600000Y-58000000D03*
%TD*%
D19*
%TO.P,U5,1*%
%TO.N,+5V_POE*%
X55500000Y-31000000D03*
%TO.P,U5,2*%
%TO.N,GND*%
X55500000Y-29000000D03*
%TO.P,U5,3*%
%TO.N,+3V3_SYS*%
X68500000Y-30000000D03*
%TD*%
D10*
%TO.P,SJ204,1*%
%TO.N,ESP_SPI2_CS_N*%
X64400000Y-66000000D03*
%TO.P,SJ204,2*%
%TO.N,NRF_SPI_CSN*%
X66600000Y-66000000D03*
%TD*%
%TO.P,F2,1*%
%TO.N,+5V_USB_RAW*%
X29800000Y-63000000D03*
%TO.P,F2,2*%
%TO.N,+5V_USB*%
X32200000Y-63000000D03*
%TD*%
%TO.P,SJ104,1*%
%TO.N,ESP_CTS_NRF_RTS*%
X51900000Y-66000000D03*
%TO.P,SJ104,2*%
%TO.N,NRF_UART_RTS*%
X54100000Y-66000000D03*
%TD*%
%TO.P,TP301,1*%
%TO.N,SWDIO*%
X85700000Y-68000000D03*
%TO.P,TP301,2*%
X83300000Y-68000000D03*
%TD*%
%TO.P,TP302,1*%
%TO.N,SWDCLK*%
X80700000Y-68000000D03*
%TO.P,TP302,2*%
X78300000Y-68000000D03*
%TD*%
D20*
%TO.N,+3V3_SYS*%
X71300000Y-56000000D03*
X89250000Y-56000000D03*
X34500000Y-54100000D03*
X68500000Y-29500000D03*
X63500000Y-43500000D03*
X52600000Y-43500000D03*
X34500000Y-56000000D03*
X69500000Y-24500000D03*
%TO.N,+5V_POE*%
X55500000Y-31000000D03*
X49000000Y-30900000D03*
%TO.N,GND*%
X84920000Y-54400000D03*
X89180000Y-52400000D03*
%TO.N,ESP_BOOT0*%
X54400000Y-30100000D03*
X82500000Y-28500000D03*
%TO.N,ESP_CTS_NRF_RTS*%
X54000000Y-52500000D03*
X51900000Y-63300000D03*
%TO.N,ESP_EN*%
X82500000Y-26500000D03*
X54000000Y-36500000D03*
%TO.N,ESP_RTS_NRF_CTS*%
X38800000Y-35100000D03*
X50900000Y-62000000D03*
%TO.N,ESP_RX_NRF_TX*%
X38000000Y-53900000D03*
X37400000Y-36500000D03*
%TO.N,ESP_SPI1_CS_N*%
X55800000Y-36500000D03*
X39800000Y-38000000D03*
%TO.N,ESP_SPI1_MISO*%
X37500000Y-46700000D03*
X55800000Y-39500000D03*
%TO.N,ESP_SPI1_MOSI*%
X55800000Y-38000000D03*
X37000000Y-44500000D03*
X39400000Y-42900000D03*
%TO.N,ESP_SPI1_SCLK*%
X55800000Y-41000000D03*
X37500000Y-48500000D03*
%TO.N,ESP_SPI2_CS_N*%
X54000000Y-45300000D03*
X54600000Y-59400000D03*
%TO.N,ESP_SPI2_MISO*%
X64100000Y-58000000D03*
X54800000Y-49500000D03*
%TO.N,ESP_SPI2_MOSI*%
X54800000Y-47700000D03*
X64700000Y-59300000D03*
%TO.N,ESP_SPI2_SCLK*%
X64100000Y-54000000D03*
X53500000Y-50700000D03*
%TO.N,ESP_TX_NRF_RX*%
X36900000Y-38100000D03*
X40200000Y-40000000D03*
X40200000Y-44100000D03*
%TO.N,ESP_U0RXD*%
X49500000Y-64000000D03*
X49500000Y-42900000D03*
%TO.N,ESP_U0TXD*%
X50900000Y-59700000D03*
X50900000Y-42900000D03*
%TO.N,ETH_INT_N*%
X52600000Y-34500000D03*
X63500000Y-34500000D03*
%TO.N,ETH_RST_N*%
X38000000Y-39500000D03*
X63500000Y-33000000D03*
%TO.N,ETH_RXN*%
X78500000Y-36000000D03*
%TO.N,ETH_RXP*%
X78500000Y-37500000D03*
%TO.N,ETH_TXN*%
X78500000Y-39000000D03*
%TO.N,ETH_TXP*%
X78500000Y-40500000D03*
%TO.N,GND*%
X68200000Y-63000000D03*
X37500000Y-50700000D03*
X31000000Y-55900000D03*
X56900000Y-35500000D03*
X31000000Y-49800000D03*
X63500000Y-42200000D03*
X49000000Y-29000000D03*
X55500000Y-29600000D03*
X55500000Y-29000000D03*
X69000000Y-64000000D03*
X68100000Y-57000000D03*
X31000000Y-53500000D03*
X34500000Y-62000000D03*
X32900000Y-50700000D03*
X81500000Y-66000000D03*
X33500000Y-29500000D03*
X32500000Y-34700000D03*
%TO.N,NRF_IRQ*%
X87400000Y-63500000D03*
X54800000Y-44100000D03*
%TO.N,NRF_RST_N*%
X87400000Y-62000000D03*
X54000000Y-42100000D03*
%TO.N,NRF_SPI_CSN*%
X67100000Y-65500000D03*
X70000000Y-51500000D03*
%TO.N,NRF_SPI_MOSI*%
X67600000Y-59200000D03*
X70000000Y-53000000D03*
%TO.N,NRF_SPI_SCLK*%
X70000000Y-56000000D03*
X68100000Y-54000000D03*
%TO.N,NRF_UART_CTS*%
X70000000Y-59000000D03*
X54100000Y-60000000D03*
%TO.N,NRF_UART_RTS*%
X54100000Y-63300000D03*
X67600000Y-60300000D03*
%TO.N,NRF_UART_RX*%
X53700000Y-56700000D03*
X68700000Y-58400000D03*
%TO.N,NRF_UART_TX*%
X70000000Y-60500000D03*
X66200000Y-59300000D03*
X53700000Y-58600000D03*
%TO.N,POE_VP*%
X50500000Y-31500000D03*
%TO.N,USB_RTS*%
X50000000Y-57400000D03*
X56400000Y-27000000D03*
%TO.N,SWDCLK*%
X87600000Y-57500000D03*
X79000000Y-67400000D03*
%TD*%
D21*
%TO.N,+3V3_SYS*%
X67600000Y-65000000D02*
X70000000Y-65000000D01*
X64300000Y-42800000D02*
X64400000Y-42800000D01*
X34500000Y-52500000D02*
X34500000Y-54100000D01*
X64600000Y-42200000D02*
X64700000Y-42200000D01*
X71000000Y-64300000D02*
X71100000Y-64300000D01*
X38000000Y-52000000D02*
X38500000Y-52000000D01*
X67600000Y-64900000D02*
X67600000Y-65000000D01*
X38500000Y-51900000D02*
X38700000Y-51900000D01*
X71300000Y-64000000D02*
X71300000Y-56000000D01*
X39100000Y-51400000D02*
X39200000Y-51400000D01*
X39100000Y-51500000D02*
X39100000Y-51400000D01*
X64000000Y-43000000D02*
X64200000Y-43000000D01*
X70900000Y-64400000D02*
X71000000Y-64400000D01*
X39300000Y-51200000D02*
X39300000Y-43500000D01*
X68500000Y-30000000D02*
X68500000Y-29500000D01*
X38000000Y-52500000D02*
X38000000Y-52000000D01*
X63700000Y-43100000D02*
X64000000Y-43100000D01*
X71200000Y-64200000D02*
X71200000Y-64000000D01*
X63500000Y-43200000D02*
X63700000Y-43200000D01*
X70000000Y-65000000D02*
X70000000Y-64800000D01*
X64200000Y-42900000D02*
X64300000Y-42900000D01*
X64500000Y-42500000D02*
X64600000Y-42500000D01*
X64700000Y-42200000D02*
X64700000Y-30000000D01*
X70500000Y-64800000D02*
X70500000Y-64700000D01*
X64400000Y-42700000D02*
X64500000Y-42700000D01*
X64200000Y-43000000D02*
X64200000Y-42900000D01*
X39200000Y-51400000D02*
X39200000Y-51200000D01*
X39000000Y-51500000D02*
X39100000Y-51500000D01*
X39000000Y-51600000D02*
X39000000Y-51500000D01*
X70900000Y-64500000D02*
X70900000Y-64400000D01*
X64500000Y-42700000D02*
X64500000Y-42500000D01*
X71200000Y-64000000D02*
X71300000Y-64000000D01*
X64700000Y-30000000D02*
X68500000Y-30000000D01*
X64600000Y-42500000D02*
X64600000Y-42200000D01*
X64000000Y-43100000D02*
X64000000Y-43000000D01*
X63500000Y-64800000D02*
X67300000Y-64800000D01*
X70000000Y-64800000D02*
X70500000Y-64800000D01*
X70500000Y-64700000D02*
X70700000Y-64700000D01*
X63500000Y-43500000D02*
X63500000Y-43200000D01*
X38500000Y-52000000D02*
X38500000Y-51900000D01*
X71100000Y-64200000D02*
X71200000Y-64200000D01*
X63700000Y-43200000D02*
X63700000Y-43100000D01*
X39300000Y-43500000D02*
X52600000Y-43500000D01*
X38800000Y-51800000D02*
X38800000Y-51700000D01*
X38700000Y-51900000D02*
X38700000Y-51800000D01*
X38900000Y-51700000D02*
X38900000Y-51600000D01*
X70700000Y-64600000D02*
X70800000Y-64600000D01*
X63500000Y-43500000D02*
X63500000Y-64800000D01*
X71000000Y-64400000D02*
X71000000Y-64300000D01*
X70800000Y-64500000D02*
X70900000Y-64500000D01*
X64300000Y-42900000D02*
X64300000Y-42800000D01*
X70800000Y-64600000D02*
X70800000Y-64500000D01*
X67300000Y-64800000D02*
X67300000Y-64900000D01*
X39200000Y-51200000D02*
X39300000Y-51200000D01*
X71100000Y-64300000D02*
X71100000Y-64200000D01*
X38800000Y-51700000D02*
X38900000Y-51700000D01*
X64400000Y-42800000D02*
X64400000Y-42700000D01*
X70700000Y-64700000D02*
X70700000Y-64600000D01*
X38000000Y-52500000D02*
X34500000Y-52500000D01*
X89250000Y-56000000D02*
X88000000Y-56000000D01*
X38700000Y-51800000D02*
X38800000Y-51800000D01*
X67300000Y-64900000D02*
X67600000Y-64900000D01*
X38900000Y-51600000D02*
X39000000Y-51600000D01*
D22*
%TO.N,+5V_POE*%
X33500000Y-31000000D02*
X49000000Y-31000000D01*
X38000000Y-62700000D02*
X37900000Y-62700000D01*
X33500000Y-31500000D02*
X33500000Y-31000000D01*
X35800000Y-61800000D02*
X35800000Y-55400000D01*
X35500000Y-55100000D02*
X35500000Y-55000000D01*
X35600000Y-55100000D02*
X35500000Y-55100000D01*
X37800000Y-62400000D02*
X37800000Y-62200000D01*
X37100000Y-61900000D02*
X37100000Y-61800000D01*
X37800000Y-62200000D02*
X37700000Y-62200000D01*
X37700000Y-62200000D02*
X37700000Y-62100000D01*
X37400000Y-61900000D02*
X37100000Y-61900000D01*
X35700000Y-55400000D02*
X35700000Y-55200000D01*
X35500000Y-55000000D02*
X35400000Y-55000000D01*
X35700000Y-55200000D02*
X35600000Y-55200000D01*
X37900000Y-62700000D02*
X37900000Y-62400000D01*
X37900000Y-62400000D02*
X37800000Y-62400000D01*
X33500000Y-54700000D02*
X33500000Y-33500000D01*
X35100000Y-54700000D02*
X33500000Y-54700000D01*
X35400000Y-54900000D02*
X35300000Y-54900000D01*
X37700000Y-62100000D02*
X37600000Y-62100000D01*
X35800000Y-55400000D02*
X35700000Y-55400000D01*
X37400000Y-62000000D02*
X37400000Y-61900000D01*
X35300000Y-54900000D02*
X35300000Y-54800000D01*
X35400000Y-55000000D02*
X35400000Y-54900000D01*
X37600000Y-62100000D02*
X37600000Y-62000000D01*
X35300000Y-54800000D02*
X35100000Y-54800000D01*
X49000000Y-31000000D02*
X49000000Y-30900000D01*
X35600000Y-55200000D02*
X35600000Y-55100000D01*
X39200000Y-63000000D02*
X38000000Y-63000000D01*
X37600000Y-62000000D02*
X37400000Y-62000000D01*
X33500000Y-33500000D02*
X33500000Y-31500000D01*
X38000000Y-63000000D02*
X38000000Y-62700000D01*
X37100000Y-61800000D02*
X35800000Y-61800000D01*
X35100000Y-54800000D02*
X35100000Y-54700000D01*
%TO.N,+5V_USB*%
X35100000Y-63200000D02*
X35100000Y-63300000D01*
X34500000Y-63300000D02*
X34500000Y-64000000D01*
X35400000Y-63100000D02*
X35300000Y-63100000D01*
X36800000Y-63000000D02*
X35400000Y-63000000D01*
X35100000Y-63300000D02*
X34500000Y-63300000D01*
X35300000Y-63200000D02*
X35100000Y-63200000D01*
X35400000Y-63000000D02*
X35400000Y-63100000D01*
X35300000Y-63100000D02*
X35300000Y-63200000D01*
X34500000Y-64000000D02*
X32200000Y-64000000D01*
X32200000Y-64000000D02*
X32200000Y-63000000D01*
%TO.N,+5V_USB_RAW*%
X29800000Y-63000000D02*
X28000000Y-63000000D01*
D23*
%TO.N,DECT_RF*%
X88000000Y-60500000D02*
X84000000Y-60500000D01*
X84000000Y-60500000D02*
X84000000Y-55800000D01*
X84000000Y-55800000D02*
X85880000Y-55800000D01*
X85880000Y-55800000D02*
X85880000Y-55000000D01*
X87015000Y-55000000D02*
X85880000Y-55000000D01*
%TO.N,DECT_RF_ANT*%
X87985000Y-55000000D02*
X88220000Y-53000000D01*
X88220000Y-53000000D02*
X87000000Y-49500000D01*
D21*
%TO.N,GND*%
X87000000Y-40500000D02*
X82000000Y-40500000D01*
X82000000Y-40500000D02*
X82000000Y-54400000D01*
X82000000Y-54400000D02*
X84920000Y-54400000D01*
X84920000Y-55000000D02*
X84920000Y-54400000D01*
X89180000Y-53000000D02*
X89180000Y-52400000D01*
D24*
%TO.N,ESP_BOOT0*%
X54000000Y-34500000D02*
X54000000Y-30100000D01*
X54000000Y-30100000D02*
X54400000Y-30100000D01*
%TO.N,ESP_CTS_NRF_RTS*%
X51900000Y-66000000D02*
X51900000Y-63300000D01*
%TO.N,ESP_EN*%
X54000000Y-36300000D02*
X54000000Y-36500000D01*
%TO.N,ESP_RTS_NRF_CTS*%
X51900000Y-62000000D02*
X50900000Y-62000000D01*
X38400000Y-35000000D02*
X38000000Y-35000000D01*
X38800000Y-35100000D02*
X38400000Y-35100000D01*
X38000000Y-35000000D02*
X38000000Y-34500000D01*
X38400000Y-35100000D02*
X38400000Y-35000000D01*
%TO.N,ESP_RX_NRF_TX*%
X50400000Y-57100000D02*
X50400000Y-57000000D01*
X50800000Y-57600000D02*
X50700000Y-57600000D01*
X50100000Y-56900000D02*
X50100000Y-56800000D01*
X37400000Y-36300000D02*
X38000000Y-36300000D01*
X50300000Y-57000000D02*
X50300000Y-56900000D01*
X50700000Y-57400000D02*
X50600000Y-57400000D01*
X50600000Y-57200000D02*
X50500000Y-57200000D01*
X50500000Y-57200000D02*
X50500000Y-57100000D01*
X49900000Y-56800000D02*
X49900000Y-56700000D01*
X50600000Y-57400000D02*
X50600000Y-57200000D01*
X37400000Y-36500000D02*
X37400000Y-36300000D01*
X50300000Y-56900000D02*
X50100000Y-56900000D01*
X50400000Y-57000000D02*
X50300000Y-57000000D01*
X38000000Y-56700000D02*
X38000000Y-53900000D01*
X50700000Y-57600000D02*
X50700000Y-57400000D01*
X50100000Y-56800000D02*
X49900000Y-56800000D01*
X51500000Y-58000000D02*
X50800000Y-58000000D01*
X49900000Y-56700000D02*
X38000000Y-56700000D01*
X50500000Y-57100000D02*
X50400000Y-57100000D01*
X50800000Y-58000000D02*
X50800000Y-57600000D01*
%TO.N,ESP_SPI1_CS_N*%
X55800000Y-36500000D02*
X55800000Y-36000000D01*
X38400000Y-42900000D02*
X38600000Y-42900000D01*
X39400000Y-40800000D02*
X39500000Y-40800000D01*
X39200000Y-42100000D02*
X39300000Y-42100000D01*
X39500000Y-40800000D02*
X39500000Y-40600000D01*
X38600000Y-42900000D02*
X38600000Y-42800000D01*
X39300000Y-42100000D02*
X39300000Y-41000000D01*
X38900000Y-42700000D02*
X38900000Y-42600000D01*
X39100000Y-42300000D02*
X39200000Y-42300000D01*
X38800000Y-42800000D02*
X38800000Y-42700000D01*
X38900000Y-42600000D02*
X39000000Y-42600000D01*
X39700000Y-40400000D02*
X39700000Y-38000000D01*
X39600000Y-40600000D02*
X39600000Y-40400000D01*
X38000000Y-43500000D02*
X38000000Y-43000000D01*
X55800000Y-36000000D02*
X63500000Y-36000000D01*
X38800000Y-42700000D02*
X38900000Y-42700000D01*
X39700000Y-38000000D02*
X39800000Y-38000000D01*
X39400000Y-41000000D02*
X39400000Y-40800000D01*
X39300000Y-41000000D02*
X39400000Y-41000000D01*
X39200000Y-42300000D02*
X39200000Y-42100000D01*
X38600000Y-42800000D02*
X38800000Y-42800000D01*
X39500000Y-40600000D02*
X39600000Y-40600000D01*
X38000000Y-43000000D02*
X38400000Y-43000000D01*
X39000000Y-42600000D02*
X39000000Y-42500000D01*
X39000000Y-42500000D02*
X39100000Y-42500000D01*
X39600000Y-40400000D02*
X39700000Y-40400000D01*
X38400000Y-43000000D02*
X38400000Y-42900000D01*
X39100000Y-42500000D02*
X39100000Y-42300000D01*
%TO.N,ESP_SPI1_MISO*%
X38000000Y-47100000D02*
X38000000Y-46700000D01*
X38000000Y-46700000D02*
X37500000Y-46700000D01*
X55800000Y-39500000D02*
X55800000Y-39000000D01*
X55800000Y-39000000D02*
X63500000Y-39000000D01*
%TO.N,ESP_SPI1_MOSI*%
X37200000Y-44600000D02*
X37200000Y-44500000D01*
X38000000Y-44800000D02*
X37600000Y-44800000D01*
X37400000Y-44600000D02*
X37200000Y-44600000D01*
X55800000Y-37500000D02*
X63500000Y-37500000D01*
X37600000Y-44800000D02*
X37600000Y-44700000D01*
X38000000Y-45300000D02*
X38000000Y-44800000D01*
X55800000Y-38000000D02*
X55800000Y-37500000D01*
X37600000Y-44700000D02*
X37400000Y-44700000D01*
X37200000Y-44500000D02*
X37000000Y-44500000D01*
X37400000Y-44700000D02*
X37400000Y-44600000D01*
%TO.N,ESP_SPI1_SCLK*%
X38000000Y-48900000D02*
X38000000Y-48500000D01*
X55800000Y-41000000D02*
X55800000Y-40500000D01*
X55800000Y-40500000D02*
X63500000Y-40500000D01*
X38000000Y-48500000D02*
X37500000Y-48500000D01*
%TO.N,ESP_SPI2_CS_N*%
X55300000Y-66000000D02*
X55300000Y-61900000D01*
X55300000Y-61900000D02*
X55200000Y-61900000D01*
X55000000Y-61400000D02*
X55000000Y-61200000D01*
X55100000Y-61600000D02*
X55100000Y-61400000D01*
X55200000Y-61900000D02*
X55200000Y-61600000D01*
X54900000Y-61100000D02*
X54700000Y-61100000D01*
X64900000Y-66000000D02*
X55300000Y-66000000D01*
X55100000Y-61400000D02*
X55000000Y-61400000D01*
X55000000Y-61200000D02*
X54900000Y-61200000D01*
X55200000Y-61600000D02*
X55100000Y-61600000D01*
X54700000Y-61000000D02*
X54600000Y-61000000D01*
X54600000Y-61000000D02*
X54600000Y-59400000D01*
X54700000Y-61100000D02*
X54700000Y-61000000D01*
X54900000Y-61200000D02*
X54900000Y-61100000D01*
%TO.N,ESP_SPI2_MISO*%
X64900000Y-58000000D02*
X64100000Y-58000000D01*
X54400000Y-49400000D02*
X54000000Y-49400000D01*
X54400000Y-49500000D02*
X54400000Y-49400000D01*
X54800000Y-49500000D02*
X54400000Y-49500000D01*
X54000000Y-49400000D02*
X54000000Y-48900000D01*
%TO.N,ESP_SPI2_MOSI*%
X54400000Y-47600000D02*
X54000000Y-47600000D01*
X54000000Y-47600000D02*
X54000000Y-47100000D01*
X54800000Y-47700000D02*
X54400000Y-47700000D01*
X64900000Y-62000000D02*
X64700000Y-62000000D01*
X64700000Y-62000000D02*
X64700000Y-59300000D01*
X54400000Y-47700000D02*
X54400000Y-47600000D01*
%TO.N,ESP_SPI2_SCLK*%
X64900000Y-54000000D02*
X64100000Y-54000000D01*
X53500000Y-50700000D02*
X54000000Y-50700000D01*
%TO.N,ESP_TX_NRF_RX*%
X51500000Y-54000000D02*
X40200000Y-54000000D01*
X36900000Y-38100000D02*
X38000000Y-38100000D01*
X40200000Y-54000000D02*
X40200000Y-44100000D01*
%TO.N,ESP_U0RXD*%
X54000000Y-38100000D02*
X49500000Y-38100000D01*
X49500000Y-38100000D02*
X49500000Y-42900000D01*
%TO.N,ESP_U0TXD*%
X50700000Y-60600000D02*
X50600000Y-60600000D01*
X50700000Y-60400000D02*
X50700000Y-60600000D01*
X50600000Y-60600000D02*
X50600000Y-60800000D01*
X50500000Y-60800000D02*
X50500000Y-60900000D01*
X50600000Y-60800000D02*
X50500000Y-60800000D01*
X50400000Y-61000000D02*
X50300000Y-61000000D01*
X50800000Y-60400000D02*
X50700000Y-60400000D01*
X49900000Y-61200000D02*
X49900000Y-61300000D01*
X49500000Y-61300000D02*
X49500000Y-62000000D01*
X50100000Y-61200000D02*
X49900000Y-61200000D01*
X54000000Y-39900000D02*
X50900000Y-39900000D01*
X50900000Y-59700000D02*
X50800000Y-59700000D01*
X50500000Y-60900000D02*
X50400000Y-60900000D01*
X50300000Y-61100000D02*
X50100000Y-61100000D01*
X50900000Y-39900000D02*
X50900000Y-42900000D01*
X49900000Y-61300000D02*
X49500000Y-61300000D01*
X50100000Y-61100000D02*
X50100000Y-61200000D01*
X50800000Y-59700000D02*
X50800000Y-60400000D01*
X50300000Y-61000000D02*
X50300000Y-61100000D01*
X50400000Y-60900000D02*
X50400000Y-61000000D01*
%TO.N,ETH_INT_N*%
X50600000Y-34900000D02*
X51000000Y-34900000D01*
X51400000Y-34700000D02*
X51400000Y-34600000D01*
X51200000Y-34800000D02*
X51200000Y-34700000D01*
X38800000Y-40900000D02*
X38900000Y-40900000D01*
X38000000Y-41200000D02*
X38400000Y-41200000D01*
X38600000Y-41000000D02*
X38800000Y-41000000D01*
X38800000Y-41000000D02*
X38800000Y-40900000D01*
X51000000Y-34900000D02*
X51000000Y-34800000D01*
X39000000Y-40800000D02*
X39000000Y-40700000D01*
X39100000Y-40700000D02*
X39100000Y-40500000D01*
X51500000Y-34500000D02*
X52600000Y-34500000D01*
X39200000Y-40300000D02*
X39300000Y-40300000D01*
X50600000Y-35000000D02*
X50600000Y-34900000D01*
X39300000Y-40300000D02*
X39300000Y-35000000D01*
X38900000Y-40800000D02*
X39000000Y-40800000D01*
X39200000Y-40500000D02*
X39200000Y-40300000D01*
X51200000Y-34700000D02*
X51400000Y-34700000D01*
X38000000Y-41700000D02*
X38000000Y-41200000D01*
X38600000Y-41100000D02*
X38600000Y-41000000D01*
X38400000Y-41100000D02*
X38600000Y-41100000D01*
X39000000Y-40700000D02*
X39100000Y-40700000D01*
X39300000Y-35000000D02*
X50600000Y-35000000D01*
X51000000Y-34800000D02*
X51200000Y-34800000D01*
X38400000Y-41200000D02*
X38400000Y-41100000D01*
X51400000Y-34600000D02*
X51500000Y-34600000D01*
X38900000Y-40900000D02*
X38900000Y-40800000D01*
X39100000Y-40500000D02*
X39200000Y-40500000D01*
X51500000Y-34600000D02*
X51500000Y-34500000D01*
%TO.N,ETH_RST_N*%
X38000000Y-39900000D02*
X38000000Y-39500000D01*
D21*
%TO.N,GND*%
X31600000Y-39300000D02*
X31800000Y-39300000D01*
X32200000Y-38800000D02*
X32300000Y-38800000D01*
X31800000Y-39300000D02*
X31800000Y-39200000D01*
X37500000Y-50700000D02*
X38000000Y-50700000D01*
X32500000Y-38200000D02*
X32500000Y-34700000D01*
X33500000Y-29500000D02*
X33500000Y-29000000D01*
X69500000Y-63700000D02*
X69500000Y-63800000D01*
X69200000Y-64000000D02*
X69000000Y-64000000D01*
X70000000Y-63700000D02*
X69500000Y-63700000D01*
X31900000Y-39200000D02*
X31900000Y-39100000D01*
X31600000Y-39400000D02*
X31600000Y-39300000D01*
X31000000Y-54800000D02*
X31000000Y-55900000D01*
X70000000Y-63500000D02*
X70000000Y-63700000D01*
X31000000Y-50700000D02*
X32900000Y-50700000D01*
X55500000Y-29000000D02*
X55500000Y-22500000D01*
X31200000Y-39500000D02*
X31200000Y-39400000D01*
X69300000Y-63800000D02*
X69300000Y-63900000D01*
X32100000Y-38900000D02*
X32200000Y-38900000D01*
X31000000Y-39500000D02*
X31200000Y-39500000D01*
X55500000Y-29000000D02*
X55500000Y-29600000D01*
X32000000Y-39100000D02*
X32000000Y-39000000D01*
X31200000Y-39400000D02*
X31600000Y-39400000D01*
X32400000Y-38200000D02*
X32500000Y-38200000D01*
X26000000Y-53000000D02*
X26000000Y-54800000D01*
X68200000Y-63500000D02*
X70000000Y-63500000D01*
X33500000Y-29000000D02*
X49000000Y-29000000D01*
X26000000Y-54800000D02*
X31000000Y-54800000D01*
X31000000Y-54800000D02*
X31000000Y-53500000D01*
X69200000Y-63900000D02*
X69200000Y-64000000D01*
X68200000Y-63000000D02*
X68200000Y-63500000D01*
X32200000Y-38900000D02*
X32200000Y-38800000D01*
X31900000Y-39100000D02*
X32000000Y-39100000D01*
X32300000Y-38800000D02*
X32300000Y-38600000D01*
X69500000Y-63800000D02*
X69300000Y-63800000D01*
X31000000Y-49800000D02*
X31000000Y-50700000D01*
X32100000Y-39000000D02*
X32100000Y-38900000D01*
X32400000Y-38600000D02*
X32400000Y-38200000D01*
X32300000Y-38600000D02*
X32400000Y-38600000D01*
X31800000Y-39200000D02*
X31900000Y-39200000D01*
X69300000Y-63900000D02*
X69200000Y-63900000D01*
X32000000Y-39000000D02*
X32100000Y-39000000D01*
X31000000Y-49800000D02*
X31000000Y-39500000D01*
X55500000Y-22500000D02*
X69500000Y-22500000D01*
D24*
%TO.N,NRF_IRQ*%
X54000000Y-43500000D02*
X54000000Y-44000000D01*
X87400000Y-63500000D02*
X88000000Y-63500000D01*
X54400000Y-44000000D02*
X54400000Y-44100000D01*
X54000000Y-44000000D02*
X54400000Y-44000000D01*
X54400000Y-44100000D02*
X54800000Y-44100000D01*
%TO.N,NRF_RST_N*%
X87400000Y-62000000D02*
X88000000Y-62000000D01*
X54000000Y-41700000D02*
X54000000Y-42100000D01*
%TO.N,NRF_SPI_CSN*%
X67100000Y-66000000D02*
X67100000Y-65500000D01*
%TO.N,NRF_SPI_MISO*%
X67900000Y-54900000D02*
X67900000Y-54800000D01*
X67200000Y-55100000D02*
X67500000Y-55100000D01*
X68000000Y-54600000D02*
X68100000Y-54600000D01*
X67500000Y-55000000D02*
X67700000Y-55000000D01*
X67200000Y-55200000D02*
X67200000Y-55100000D01*
X67900000Y-54800000D02*
X68000000Y-54800000D01*
X67700000Y-54900000D02*
X67900000Y-54900000D01*
X67100000Y-58000000D02*
X67100000Y-55200000D01*
X67500000Y-55100000D02*
X67500000Y-55000000D01*
X68000000Y-54800000D02*
X68000000Y-54600000D01*
X67100000Y-55200000D02*
X67200000Y-55200000D01*
X67700000Y-55000000D02*
X67700000Y-54900000D01*
X68100000Y-54500000D02*
X70000000Y-54500000D01*
X68100000Y-54600000D02*
X68100000Y-54500000D01*
%TO.N,NRF_SPI_MOSI*%
X67100000Y-59200000D02*
X67600000Y-59200000D01*
X67100000Y-62000000D02*
X67100000Y-59200000D01*
%TO.N,NRF_SPI_SCLK*%
X67100000Y-54000000D02*
X68100000Y-54000000D01*
%TO.N,NRF_UART_CTS*%
X54100000Y-62000000D02*
X54100000Y-60000000D01*
%TO.N,NRF_UART_RTS*%
X67600000Y-60300000D02*
X67600000Y-59800000D01*
X68300000Y-57500000D02*
X70000000Y-57500000D01*
X67600000Y-59800000D02*
X67800000Y-59800000D01*
X68100000Y-59600000D02*
X68100000Y-59400000D01*
X68300000Y-58100000D02*
X68300000Y-57500000D01*
X67800000Y-59800000D02*
X67800000Y-59700000D01*
X68200000Y-59400000D02*
X68200000Y-58100000D01*
X68100000Y-59400000D02*
X68200000Y-59400000D01*
X68200000Y-58100000D02*
X68300000Y-58100000D01*
X68000000Y-59700000D02*
X68000000Y-59600000D01*
X54100000Y-66000000D02*
X54100000Y-63300000D01*
X67800000Y-59700000D02*
X68000000Y-59700000D01*
X68000000Y-59600000D02*
X68100000Y-59600000D01*
%TO.N,NRF_UART_RX*%
X68700000Y-58400000D02*
X68700000Y-62000000D01*
X68700000Y-62000000D02*
X70000000Y-62000000D01*
X53700000Y-54000000D02*
X53700000Y-56700000D01*
%TO.N,NRF_UART_TX*%
X53700000Y-58000000D02*
X53700000Y-58600000D01*
D25*
%TO.N,POE_VN*%
X50500000Y-27500000D02*
X50500000Y-29500000D01*
X29000000Y-27500000D02*
X50500000Y-27500000D01*
X29000000Y-22000000D02*
X29000000Y-27500000D01*
%TO.N,POE_VP*%
X50500000Y-31500000D02*
X50500000Y-33500000D01*
D24*
%TO.N,USB_CC1*%
X22000000Y-63000000D02*
X22000000Y-57200000D01*
X22000000Y-57200000D02*
X31000000Y-57200000D01*
%TO.N,USB_CC2*%
X25500000Y-51600000D02*
X25900000Y-51600000D01*
X25000000Y-52000000D02*
X25000000Y-51900000D01*
X22000000Y-53000000D02*
X22000000Y-52200000D01*
X25300000Y-51700000D02*
X25500000Y-51700000D01*
X25300000Y-51800000D02*
X25300000Y-51700000D01*
X28500000Y-51600000D02*
X28500000Y-51700000D01*
X24900000Y-52100000D02*
X24900000Y-52000000D01*
X25500000Y-51700000D02*
X25500000Y-51600000D01*
X28900000Y-51900000D02*
X29000000Y-51900000D01*
X28100000Y-51500000D02*
X28100000Y-51600000D01*
X28900000Y-51800000D02*
X28900000Y-51900000D01*
X28700000Y-51700000D02*
X28700000Y-51800000D01*
X29100000Y-52100000D02*
X29200000Y-52100000D01*
X25100000Y-51800000D02*
X25300000Y-51800000D01*
X25100000Y-51900000D02*
X25100000Y-51800000D01*
X28500000Y-51700000D02*
X28700000Y-51700000D01*
X25000000Y-51900000D02*
X25100000Y-51900000D01*
X28100000Y-51600000D02*
X28500000Y-51600000D01*
X22000000Y-52200000D02*
X24800000Y-52200000D01*
X29000000Y-51900000D02*
X29000000Y-52000000D01*
X24800000Y-52100000D02*
X24900000Y-52100000D01*
X29200000Y-52200000D02*
X31000000Y-52200000D01*
X29200000Y-52100000D02*
X29200000Y-52200000D01*
X29100000Y-52000000D02*
X29100000Y-52100000D01*
X24900000Y-52000000D02*
X25000000Y-52000000D01*
X29000000Y-52000000D02*
X29100000Y-52000000D01*
X24800000Y-52200000D02*
X24800000Y-52100000D01*
X28700000Y-51800000D02*
X28900000Y-51800000D01*
X25900000Y-51600000D02*
X25900000Y-51500000D01*
X25900000Y-51500000D02*
X28100000Y-51500000D01*
%TO.N,USB_DM*%
X31400000Y-58200000D02*
X31600000Y-58200000D01*
X31100000Y-58400000D02*
X31100000Y-58300000D01*
X31600000Y-58100000D02*
X31800000Y-58100000D01*
X31800000Y-58000000D02*
X34500000Y-58000000D01*
X31100000Y-58300000D02*
X31400000Y-58300000D01*
X24000000Y-63000000D02*
X24000000Y-58400000D01*
X31800000Y-58100000D02*
X31800000Y-58000000D01*
X31600000Y-58200000D02*
X31600000Y-58100000D01*
X31400000Y-58300000D02*
X31400000Y-58200000D01*
X24000000Y-58400000D02*
X31100000Y-58400000D01*
%TO.N,USB_DP*%
X26000000Y-60000000D02*
X34500000Y-60000000D01*
X26000000Y-63000000D02*
X26000000Y-60000000D01*
%TO.N,USB_DTR*%
X49500000Y-60000000D02*
X49500000Y-59300000D01*
X54500000Y-58900000D02*
X54500000Y-58800000D01*
X54700000Y-58600000D02*
X54700000Y-58400000D01*
X54300000Y-58900000D02*
X54500000Y-58900000D01*
X54900000Y-53400000D02*
X55000000Y-53400000D01*
X55300000Y-32300000D02*
X55900000Y-32300000D01*
X56600000Y-31800000D02*
X56600000Y-31600000D01*
X55100000Y-53300000D02*
X55100000Y-53100000D01*
X54100000Y-59000000D02*
X54300000Y-59000000D01*
X49900000Y-59200000D02*
X53800000Y-59200000D01*
X56500000Y-31900000D02*
X56500000Y-31800000D01*
X55000000Y-53400000D02*
X55000000Y-53300000D01*
X54700000Y-58400000D02*
X54800000Y-58400000D01*
X55900000Y-32200000D02*
X56100000Y-32200000D01*
X53800000Y-59100000D02*
X54100000Y-59100000D01*
X55200000Y-53100000D02*
X55200000Y-52900000D01*
X55100000Y-53100000D02*
X55200000Y-53100000D01*
X56400000Y-32000000D02*
X56400000Y-31900000D01*
X55900000Y-32300000D02*
X55900000Y-32200000D01*
X56400000Y-31900000D02*
X56500000Y-31900000D01*
X55300000Y-52900000D02*
X55300000Y-32300000D01*
X56300000Y-32100000D02*
X56300000Y-32000000D01*
X54900000Y-58100000D02*
X54900000Y-53400000D01*
X56100000Y-32100000D02*
X56300000Y-32100000D01*
X54600000Y-58800000D02*
X54600000Y-58600000D01*
X55000000Y-53300000D02*
X55100000Y-53300000D01*
X56300000Y-32000000D02*
X56400000Y-32000000D01*
X56800000Y-31400000D02*
X56800000Y-28500000D01*
X56600000Y-31600000D02*
X56700000Y-31600000D01*
X56100000Y-32200000D02*
X56100000Y-32100000D01*
X54300000Y-59000000D02*
X54300000Y-58900000D01*
X54500000Y-58800000D02*
X54600000Y-58800000D01*
X53800000Y-59200000D02*
X53800000Y-59100000D01*
X56800000Y-28500000D02*
X69500000Y-28500000D01*
X56500000Y-31800000D02*
X56600000Y-31800000D01*
X49900000Y-59300000D02*
X49900000Y-59200000D01*
X56700000Y-31400000D02*
X56800000Y-31400000D01*
X54800000Y-58400000D02*
X54800000Y-58100000D01*
X55200000Y-52900000D02*
X55300000Y-52900000D01*
X54600000Y-58600000D02*
X54700000Y-58600000D01*
X49500000Y-59300000D02*
X49900000Y-59300000D01*
X54100000Y-59100000D02*
X54100000Y-59000000D01*
X54800000Y-58100000D02*
X54900000Y-58100000D01*
X56700000Y-31600000D02*
X56700000Y-31400000D01*
%TO.N,USB_RTS*%
X56400000Y-26500000D02*
X69500000Y-26500000D01*
X49500000Y-58000000D02*
X49500000Y-57400000D01*
X49500000Y-57400000D02*
X50000000Y-57400000D01*
X56400000Y-27000000D02*
X56400000Y-26500000D01*
%TO.N,SWDIO*%
X88000000Y-59000000D02*
X89200000Y-59000000D01*
X89200000Y-59000000D02*
X89200000Y-67400000D01*
X89200000Y-67400000D02*
X85700000Y-68000000D01*
%TO.N,SWDCLK*%
X88000000Y-57500000D02*
X87600000Y-57500000D01*
X79000000Y-67400000D02*
X80700000Y-68000000D01*
X78300000Y-68000000D02*
X80700000Y-68000000D01*
%TO.N,SWDIO*%
X83300000Y-68000000D02*
X85700000Y-68000000D01*
%TD*%
D26*
X71300000Y-56000000D03*
X89250000Y-56000000D03*
X34500000Y-54100000D03*
X68500000Y-29500000D03*
X63500000Y-43500000D03*
X52600000Y-43500000D03*
X34500000Y-56000000D03*
X69500000Y-24500000D03*
X55500000Y-31000000D03*
X49000000Y-30900000D03*
X84920000Y-54400000D03*
X89180000Y-52400000D03*
X54400000Y-30100000D03*
X82500000Y-28500000D03*
X54000000Y-52500000D03*
X51900000Y-63300000D03*
X82500000Y-26500000D03*
X54000000Y-36500000D03*
X38800000Y-35100000D03*
X50900000Y-62000000D03*
X38000000Y-53900000D03*
X37400000Y-36500000D03*
X55800000Y-36500000D03*
X39800000Y-38000000D03*
X37500000Y-46700000D03*
X55800000Y-39500000D03*
X55800000Y-38000000D03*
X37000000Y-44500000D03*
X39400000Y-42900000D03*
X55800000Y-41000000D03*
X37500000Y-48500000D03*
X54000000Y-45300000D03*
X54600000Y-59400000D03*
X64100000Y-58000000D03*
X54800000Y-49500000D03*
X54800000Y-47700000D03*
X64700000Y-59300000D03*
X64100000Y-54000000D03*
X53500000Y-50700000D03*
X36900000Y-38100000D03*
X40200000Y-40000000D03*
X40200000Y-44100000D03*
X49500000Y-64000000D03*
X49500000Y-42900000D03*
X50900000Y-59700000D03*
X50900000Y-42900000D03*
X52600000Y-34500000D03*
X63500000Y-34500000D03*
X38000000Y-39500000D03*
X63500000Y-33000000D03*
X78500000Y-36000000D03*
X78500000Y-37500000D03*
X78500000Y-39000000D03*
X78500000Y-40500000D03*
X68200000Y-63000000D03*
X37500000Y-50700000D03*
X31000000Y-55900000D03*
X56900000Y-35500000D03*
X31000000Y-49800000D03*
X63500000Y-42200000D03*
X49000000Y-29000000D03*
X55500000Y-29600000D03*
X55500000Y-29000000D03*
X69000000Y-64000000D03*
X68100000Y-57000000D03*
X31000000Y-53500000D03*
X34500000Y-62000000D03*
X32900000Y-50700000D03*
X81500000Y-66000000D03*
X33500000Y-29500000D03*
X32500000Y-34700000D03*
X87400000Y-63500000D03*
X54800000Y-44100000D03*
X87400000Y-62000000D03*
X54000000Y-42100000D03*
X67100000Y-65500000D03*
X70000000Y-51500000D03*
X67600000Y-59200000D03*
X70000000Y-53000000D03*
X70000000Y-56000000D03*
X68100000Y-54000000D03*
X70000000Y-59000000D03*
X54100000Y-60000000D03*
X54100000Y-63300000D03*
X67600000Y-60300000D03*
X53700000Y-56700000D03*
X68700000Y-58400000D03*
X70000000Y-60500000D03*
X66200000Y-59300000D03*
X53700000Y-58600000D03*
X50500000Y-31500000D03*
X50000000Y-57400000D03*
X56400000Y-27000000D03*
X87600000Y-57500000D03*
X79000000Y-67400000D03*
D27*
X28000000Y-63000000D03*
X26000000Y-63000000D03*
X24000000Y-63000000D03*
X22000000Y-63000000D03*
X22000000Y-53000000D03*
X26000000Y-53000000D03*
X28000000Y-53000000D03*
X31000000Y-38000000D03*
X29000000Y-38000000D03*
X27000000Y-38000000D03*
X25000000Y-38000000D03*
X31000000Y-22000000D03*
X29000000Y-22000000D03*
X27000000Y-22000000D03*
M02*
